<svg width="137" height="41" viewBox="0 0 137 41" fill="none" xmlns="http://www.w3.org/2000/svg">
<path d="M22.176 33H16.731L13.728 25.179C13.486 24.563 13.112 24.134 12.606 23.892C12.122 23.65 11.506 23.529 10.758 23.529H7.425V33H2.343V9.504H12.804C15.532 9.504 17.6 10.098 19.008 11.286C20.416 12.474 21.12 14.179 21.12 16.401C21.12 17.963 20.702 19.305 19.866 20.427C19.052 21.549 17.875 22.352 16.335 22.836C17.721 23.122 18.722 24.079 19.338 25.707L22.176 33ZM12.045 19.602C13.519 19.602 14.597 19.36 15.279 18.876C15.961 18.37 16.302 17.589 16.302 16.533C16.302 15.477 15.961 14.707 15.279 14.223C14.597 13.717 13.519 13.464 12.045 13.464H7.359V19.602H12.045ZM40.3923 25.047H29.3703C29.4583 26.609 29.8653 27.753 30.5913 28.479C31.3173 29.183 32.3953 29.535 33.8253 29.535C34.6833 29.535 35.5413 29.392 36.3993 29.106C37.2573 28.82 38.0493 28.402 38.7753 27.852L40.0953 31.218C39.3033 31.856 38.3133 32.362 37.1253 32.736C35.9593 33.088 34.7823 33.264 33.5943 33.264C30.7783 33.264 28.5673 32.494 26.9613 30.954C25.3553 29.392 24.5523 27.269 24.5523 24.585C24.5523 22.891 24.8933 21.384 25.5753 20.064C26.2793 18.722 27.2583 17.688 28.5123 16.962C29.7663 16.214 31.1853 15.84 32.7693 15.84C35.1233 15.84 36.9823 16.61 38.3463 18.15C39.7103 19.668 40.3923 21.725 40.3923 24.321V25.047ZM32.9013 19.338C31.9553 19.338 31.1853 19.613 30.5913 20.163C30.0193 20.713 29.6453 21.516 29.4693 22.572H36.1023C35.8383 20.416 34.7713 19.338 32.9013 19.338ZM51.4408 33.264C48.7128 33.264 46.5678 32.494 45.0058 30.954C43.4658 29.414 42.6958 27.313 42.6958 24.651C42.6958 22.913 43.0698 21.384 43.8178 20.064C44.5658 18.722 45.6108 17.688 46.9528 16.962C48.3168 16.214 49.8898 15.84 51.6718 15.84C52.8818 15.84 54.0588 16.027 55.2028 16.401C56.3468 16.775 57.2598 17.281 57.9418 17.919L56.6218 21.384C55.9618 20.856 55.2358 20.449 54.4438 20.163C53.6518 19.855 52.8818 19.701 52.1338 19.701C50.7698 19.701 49.7028 20.119 48.9328 20.955C48.1848 21.769 47.8108 22.968 47.8108 24.552C47.8108 26.158 48.1848 27.379 48.9328 28.215C49.6808 29.029 50.7478 29.436 52.1338 29.436C52.8818 29.436 53.6518 29.293 54.4438 29.007C55.2358 28.699 55.9618 28.281 56.6218 27.753L57.9418 31.218C57.2158 31.856 56.2698 32.362 55.1038 32.736C53.9378 33.088 52.7168 33.264 51.4408 33.264ZM68.2969 33.264C66.5149 33.264 64.9529 32.912 63.6109 32.208C62.2909 31.504 61.2679 30.492 60.5419 29.172C59.8379 27.852 59.4859 26.312 59.4859 24.552C59.4859 22.792 59.8379 21.252 60.5419 19.932C61.2679 18.612 62.2909 17.6 63.6109 16.896C64.9529 16.192 66.5149 15.84 68.2969 15.84C70.0569 15.84 71.5969 16.192 72.9169 16.896C74.2369 17.6 75.2489 18.612 75.9529 19.932C76.6789 21.252 77.0419 22.792 77.0419 24.552C77.0419 26.312 76.6789 27.852 75.9529 29.172C75.2489 30.492 74.2369 31.504 72.9169 32.208C71.5969 32.912 70.0569 33.264 68.2969 33.264ZM68.2969 29.469C69.5289 29.469 70.4639 29.062 71.1019 28.248C71.7619 27.434 72.0919 26.202 72.0919 24.552C72.0919 22.924 71.7619 21.703 71.1019 20.889C70.4639 20.053 69.5289 19.635 68.2969 19.635C67.0429 19.635 66.0859 20.053 65.4259 20.889C64.7659 21.703 64.4359 22.924 64.4359 24.552C64.4359 27.83 65.7229 29.469 68.2969 29.469ZM91.4876 16.302H96.4046L89.0456 33H84.8216L77.5616 16.302H82.7756L87.0656 27.126L91.4876 16.302ZM112.741 25.047H101.719C101.807 26.609 102.214 27.753 102.94 28.479C103.666 29.183 104.744 29.535 106.174 29.535C107.032 29.535 107.89 29.392 108.748 29.106C109.606 28.82 110.398 28.402 111.124 27.852L112.444 31.218C111.652 31.856 110.662 32.362 109.474 32.736C108.308 33.088 107.131 33.264 105.943 33.264C103.127 33.264 100.916 32.494 99.3099 30.954C97.7039 29.392 96.9009 27.269 96.9009 24.585C96.9009 22.891 97.2419 21.384 97.9239 20.064C98.6279 18.722 99.6069 17.688 100.861 16.962C102.115 16.214 103.534 15.84 105.118 15.84C107.472 15.84 109.331 16.61 110.695 18.15C112.059 19.668 112.741 21.725 112.741 24.321V25.047ZM105.25 19.338C104.304 19.338 103.534 19.613 102.94 20.163C102.368 20.713 101.994 21.516 101.818 22.572H108.451C108.187 20.416 107.12 19.338 105.25 19.338ZM125.604 15.873C126.308 15.873 126.902 15.983 127.386 16.203L127.353 20.757C126.539 20.383 125.725 20.196 124.911 20.196C123.591 20.196 122.579 20.559 121.875 21.285C121.193 21.989 120.852 22.979 120.852 24.255V33H115.869V21.054C115.869 19.272 115.781 17.677 115.605 16.269H120.291L120.621 19.14C121.039 18.084 121.688 17.281 122.568 16.731C123.47 16.159 124.482 15.873 125.604 15.873Z" fill="black"/>
<path d="M129.009 27.687H134.388V33H129.009V27.687Z" fill="#FF790E"/>
<rect x="27" y="10" width="10" height="3" fill="#FF790E"/>
</svg>
