<svg width="27" height="27" viewBox="0 0 27 27" fill="none" xmlns="http://www.w3.org/2000/svg">
<path d="M19.3622 25.236C22.5528 25.236 25.1392 22.6398 25.1392 19.4371C25.1392 16.2345 22.5528 13.6382 19.3622 13.6382C16.1716 13.6382 13.5851 16.2345 13.5851 19.4371C13.5851 22.6398 16.1716 25.236 19.3622 25.236Z" stroke="white" stroke-width="1.5" stroke-miterlimit="10" stroke-linecap="round" stroke-linejoin="round"/>
<path d="M15.2782 23.7192C14.367 23.9513 13.4129 24.0747 12.4298 24.0747C6.04917 24.0747 0.876587 18.8825 0.876587 12.4768C0.876587 6.07206 6.04917 0.879883 12.4298 0.879883C18.8113 0.879883 23.9839 6.07206 23.9839 12.4768C23.9839 13.4756 23.8582 14.4451 23.6216 15.3699" stroke="white" stroke-width="1.5" stroke-miterlimit="10" stroke-linecap="round" stroke-linejoin="round"/>
<path d="M19.3618 16.5366V22.3356" stroke="white" stroke-width="1.5" stroke-miterlimit="10" stroke-linejoin="round"/>
<path d="M22.2505 19.4351H16.4734" stroke="white" stroke-width="1.5" stroke-miterlimit="10" stroke-linejoin="round"/>
<path fill-rule="evenodd" clip-rule="evenodd" d="M12.2381 15.1861C14.1826 15.1861 15.4753 12.5434 15.6638 11.8736C15.6774 11.8251 15.9678 11.6743 15.9924 11.6296C17.0457 9.72706 15.895 9.51049 15.895 9.51049C15.895 9.51049 15.9487 8.50806 15.7047 7.56593C15.7047 7.56593 15.5454 5.22754 12.2381 5.22754C8.94723 5.22754 8.77154 7.56593 8.77154 7.56593C8.52757 8.50806 8.58128 9.51049 8.58128 9.51049C8.58128 9.51049 7.4306 9.72706 8.48387 11.6296C8.50754 11.6743 8.79885 11.8251 8.8125 11.8736C9.00095 12.5434 10.2936 15.1861 12.2381 15.1861V15.1861Z" stroke="white" stroke-width="1.5" stroke-miterlimit="10" stroke-linecap="round" stroke-linejoin="round"/>
<path d="M4.43353 20.7056C4.43353 17.8336 6.30065 16.4711 8.30068 15.8269C9.7108 15.3718 10.4527 14.6216 10.4527 14.6216" stroke="white" stroke-width="1.5" stroke-miterlimit="10" stroke-linecap="round" stroke-linejoin="round"/>
<path d="M14.0226 14.6216C14.0226 14.6216 14.3339 14.9368 14.9384 15.2832" stroke="white" stroke-width="1.5" stroke-miterlimit="10" stroke-linecap="round" stroke-linejoin="round"/>
</svg>
